<?xml version="1.0" encoding="utf-8"?>
<!-- Generator: Adobe Illustrator 22.0.1, SVG Export Plug-In . SVG Version: 6.00 Build 0)  -->
<svg version="1.0"
	 id="svg9136" inkscape:version="0.91 r13725" sodipodi:docname="controller.svg" xmlns:cc="http://creativecommons.org/ns#" xmlns:dc="http://purl.org/dc/elements/1.1/" xmlns:inkscape="http://www.inkscape.org/namespaces/inkscape" xmlns:rdf="http://www.w3.org/1999/02/22-rdf-syntax-ns#" xmlns:sodipodi="http://sodipodi.sourceforge.net/DTD/sodipodi-0.dtd" xmlns:svg="http://www.w3.org/2000/svg"
	 xmlns="http://www.w3.org/2000/svg" xmlns:xlink="http://www.w3.org/1999/xlink" x="0px" y="0px" viewBox="0 0 598.9 351"
	 style="enable-background:new 0 0 598.9 351;" xml:space="preserve">
<sodipodi:namedview  bordercolor="#666666" borderopacity="1.0" fit-margin-bottom="0" fit-margin-left="0" fit-margin-right="0" fit-margin-top="0" id="base" inkscape:bbox-nodes="true" inkscape:bbox-paths="true" inkscape:current-layer="layer1" inkscape:cx="164.19731" inkscape:cy="128.25713" inkscape:document-units="px" inkscape:pageopacity="0.0" inkscape:pageshadow="2" inkscape:snap-bbox="true" inkscape:snap-global="false" inkscape:window-height="808" inkscape:window-maximized="0" inkscape:window-width="1440" inkscape:window-x="11" inkscape:window-y="120" inkscape:zoom="0.99" pagecolor="#ffffff" showgrid="false" showguides="false" units="px">
	</sodipodi:namedview>
<g id="g5316" transform="matrix(0.06841316,0,0,0.06841316,13.37323,279.01986)">
</g>
<path id="path7905" inkscape:connector-curvature="0" style="fill:#FFFFFF;" d="M141.3,36.9c-10.3,0-18.6,8.3-18.6,18.6v23.4v6.8
	v211.8c0,8.9,7.2,16.2,16.2,16.2h321.8c8.9,0,16.2-7.2,16.2-16.2V78.8c0-8.9-7.2-16.2-16.2-16.2H261.2h-4.3
	c-4.8,0-12.5-3.3-15.3-12.7c-1.6-5.4-5.5-8.6-9.2-10.5c-3.7-1.9-7.2-2.5-8.8-2.5c-22.2,0-62.7,0-81,0L141.3,36.9z M141.3,39.3
	c18,0,59.7,0,82.2,0c0.9,0,4.4,0.5,7.7,2.2c3.3,1.7,6.6,4.5,8,9.1C242.4,61,251,65,256.8,65h4.3h199.5c7.7,0,13.8,6.1,13.8,13.8
	v218.6c0,7.7-6.1,13.8-13.8,13.8H138.9c-7.7,0-13.8-6.1-13.8-13.8V85.6v-6.8V55.4C125.1,46.4,132.3,39.3,141.3,39.3L141.3,39.3z"/>
<path id="path7907" inkscape:connector-curvature="0" style="fill:#FFFFFF;" d="M142,79.2c-10.6,0-19.3,8.6-19.3,19.3v29.9v129.6
	v20.3h2.4v-20.3V128.3V98.4c0-9.4,7.5-16.9,16.9-16.9h315.6c9.4,0,16.9,7.5,16.9,16.9v29.9v129.6v20.3h2.4v-20.3V128.3V98.4
	c0-10.6-8.6-19.3-19.3-19.3H142z"/>
<path id="rect7909" inkscape:connector-curvature="0" style="fill:#FFFFFF;" d="M123.5,284.9v0.5v8.9h352.7v-9.4H123.5z
	 M124.4,285.8h350.8v7.6H124.4V285.8z"/>
<path id="rect5420" inkscape:connector-curvature="0" style="fill:#FFFFFF;" d="M123.5,293.4v0.5v7.8h352.7v-8.3H123.5z
	 M124.4,294.3h350.8v6.4H124.4V294.3z"/>
<g id="Layer_2_1_">
</g>
<path style="fill:#FFFFFF;" d="M339,116.6c-14.1,0-27.3,6.3-36.1,17.4l-0.2,0.3l-2.6,4.1l-3-3.8c-8.8-11.4-22.2-17.9-36.5-17.9
	c-25.5,0-46.3,20.8-46.3,46.3c0,26.5,27.3,47.1,51.4,65.3c15.1,11.4,28.6,21.6,34.5,32.3c5.5-8.5,16.9-16.6,30.1-26.1
	c24.5-17.5,54.9-39.4,54.9-71.5C385.2,137.4,364.5,116.6,339,116.6z M328.7,232.1c-11.7,8.4-22,15.7-28.3,23.4
	c-6.9-9.8-19.1-19-33-29.5c-23.6-17.8-50.2-37.9-50.2-63c0-23.9,19.5-43.4,43.4-43.4c13.5,0,26,6.1,34.3,16.8l5.4,7l4.9-7.6
	c8.3-10.3,20.6-16.2,33.8-16.2c23.9,0,43.4,19.5,43.4,43.4C382.4,193.6,352.6,214.9,328.7,232.1z"/>
</svg>
