<?xml version="1.0" encoding="utf-8"?>
<!-- Generator: Adobe Illustrator 22.0.1, SVG Export Plug-In . SVG Version: 6.00 Build 0)  -->
<svg version="1.0" id="Layer_1" xmlns="http://www.w3.org/2000/svg" xmlns:xlink="http://www.w3.org/1999/xlink" x="0px" y="0px"
	 viewBox="0 0 708.7 178.8" style="enable-background:new 0 0 708.7 178.8;" xml:space="preserve">
<g>
	<path d="M253.8,178.8c-1.6,0-3.3-0.1-4.9-0.2c-19.5-1.4-35.9-10.5-48.8-27.2c-2.8,6.5-8.1,10.4-14.9,11.2l-17.5,1.5
		c-0.4,0-0.8,0-1.3,0c-6.1,0-11.3-2.9-14.9-8.3c-2,6.4-7.2,9.4-12.3,9.4c-0.2,0-0.4,0-0.6,0l-18.9-0.8c-5.5-0.2-9.9-3.8-13-10.5
		l-5.2-0.2c-1.5,2.6-5.7,9.3-13.3,9.3c-0.2,0-0.4,0-0.6,0l-19.7-0.9c-6.1-0.3-12-5.1-11.6-15.3l0-0.9l8.8-37.7l-14.5,1.2l3.2,39.8
		c0.7,8.6-4.8,15.2-13.5,15.9l-14.8,1.2c-0.5,0-1,0.1-1.5,0.1c-7.9,0-13.7-5.5-14.3-13.6L0.1,33.9C-0.4,28.5,1.6,25,3.3,23
		c1.7-2,4.9-4.5,10.3-5l69-5.6c0.5,0,1-0.1,1.5-0.1c3.9,0,7.3,1.3,9.8,3.6c2.1-0.9,4.4-1.4,6.9-1.4l0.6,0l17.4,0.8
		c3.3,0.2,6.2,1.2,8.8,2.9c0,0,0.4,0,0.4,0l19.8-1.7c0.4,0,0.7,0,1.1,0c7.6,0,12,6.8,13.4,9.1l0.8,1.2l2.7,9.2l1-9.4l0.5-1.2
		c2.8-7.2,7.1-11,12.7-11.5l19-1.7l0.2,0c0.3,0,0.6,0,0.8,0c4.9,0,8.9,2.6,11.2,6.8C224.3,6.3,239.6,0,256.5,0
		c1.6,0,3.3,0.1,4.9,0.2c16.6,1.2,31,8,42.9,20.4c1.6-0.7,3.3-1.2,5.2-1.4l14.8-1.5c0.6-0.1,1.2-0.1,1.8-0.1
		c7.7,0,13.5,5.3,14.3,13.3l5.9,59.3c1,9.7,3,17.9,6.2,24.2c0.6,1.3,1.2,2.2,1.7,3c0.3-0.8,0.7-1.9,1-3.3c1.8-6.8,2.2-15.2,1.3-24.9
		l-5.9-59.3c-0.9-8.6,4.5-15.3,13.2-16.1l14.8-1.5c0.6-0.1,1.2-0.1,1.8-0.1c3.5,0,6.6,1.1,9.1,3.1c2.4-1.9,5.5-3,9-3
		c0.5,0,1.1,0,1.6,0.1l34.5,3.1c8.3,0.7,15.7,3.2,22.3,7.2c2.3-3.8,6.3-6.3,11.4-6.7l14.8-1.2c0.5,0,1-0.1,1.5-0.1
		c1.8,0,3.5,0.3,5.1,0.9c2.2-1.3,4.8-2,7.7-2c0.5,0,0.9,0,1.4,0.1l59.8,4.6l68.7-5.6c0.5,0,1-0.1,1.5-0.1c5.5,0,10,2.7,12.4,7
		c6.4-2.9,13.2-4.4,20.6-4.4c1.1,0,2.3,0,3.4,0.1l29.6,1.8c5.4,0.3,8.6,2.8,10.4,4.7c1.7,2,3.8,5.5,3.4,10.8l-0.9,14.9
		c-0.5,8.3-6.3,13.9-14.4,13.9c-0.4,0-0.7,0-1.1,0l-29.6-1.8c-0.1,0-0.3,0-0.4,0c-1.3,0-2.2,0.4-3.2,1.3c-1.1,1-1.6,2-1.7,3.5
		c-0.1,1.5,0.3,2.6,1.3,3.7c1,1.1,2,1.6,3.5,1.7c13.4,0.8,24.8,6.1,33.8,15.7c9.1,9.7,13.4,21.3,12.6,34.3
		c-0.8,13-6.4,23.9-16.6,32.5c-9.2,7.7-19.9,11.6-32,11.6c-1.1,0-2.3,0-3.4-0.1l-29.6-1.8c-0.3,0-0.5,0-0.8-0.1l-55.6,4.6
		c-0.5,0-1,0.1-1.5,0.1c-7.9,0-13.7-5.4-14.3-13.6l-4.9-59.9l-4.5,58.5c-0.6,8.1-6.4,13.6-14.4,13.6c-0.5,0-0.9,0-1.4-0.1l-14.8-1.1
		c-5.3-0.4-8.4-2.8-10.2-4.8c-2.3,2.1-5.4,3.5-9,3.8l-14.9,1.2c-0.5,0-1,0.1-1.5,0.1c-3.8,0-7.2-1.3-9.7-3.5c-2.5,3.8-6.7,6-11.8,6
		c-0.5,0-1.1,0-1.6-0.1l-14.8-1.3c-8.6-0.8-14.1-7.3-13.3-16l3.1-34.6c0.1-1.5-0.2-2.6-1.2-3.8c-1-1.2-2-1.7-3.4-1.8l-5.1-0.5
		l-3.5,39.7c-0.7,8-6.5,13.4-14.3,13.4c-0.5,0-1.1,0-1.6-0.1l-14.8-1.3c-3.8-0.3-7.1-1.8-9.4-4.2c-5.5,4.3-11.8,6.7-18.7,7.4
		c-1.2,0.1-2.5,0.2-3.7,0.2c-13,0-24.7-6.7-34.7-20c-1.3-1.7-2.6-3.5-3.7-5.4c-3.5,6.2-7.8,11.9-12.6,17.1
		C289.4,171,272.6,178.8,253.8,178.8z M596.1,119.7l39.6-3.3c0.5,0,1-0.1,1.5-0.1c2.9,0,5.5,0.7,7.8,2.1l14,0.8c0.1,0,0.3,0,0.4,0
		c1.3,0,2.2-0.4,3.2-1.3c1.1-1,1.6-2,1.7-3.5c0.1-1.5-0.3-2.6-1.3-3.7c-1-1.1-2-1.6-3.5-1.7c-8.9-0.5-16.9-3-24-7.5
		c-0.1,0.2-0.2,0.3-0.4,0.5c-1.7,2-4.9,4.5-10.2,5l-29.7,2.4L596.1,119.7z M238.5,68.5c-6.3,0-11.6,5-12,11.3
		c-0.5,7.6,9.1,16.1,17.7,23.6c3.6,3.2,7.1,6.2,10,9.3c2.6-1.8,5.4-3.6,8.4-5.4c10.7-6.6,21.7-13.4,22.4-23.3
		c0.5-6.7-4.5-12.5-11.2-13c-0.3,0-0.6,0-0.9,0c-3.2,0-6.3,1.3-8.6,3.6l-8,10.9l-7.7-11.6c-2.1-3.1-5.4-5.1-9.2-5.4
		C239,68.5,238.8,68.5,238.5,68.5z M504.7,99.3l3.1-40.6l-6.5-0.5L504.7,99.3z M592.1,70.2l21.4-1.8c-0.4-3-0.5-6.1-0.3-9.3
		c0-0.3,0-0.7,0.1-1l-22,1.8L592.1,70.2z M47.3,70.1l27-2.2l2.4-10.5l-30.2,2.4L47.3,70.1z M429.6,69.8c0.2,0,0.4,0,0.6,0
		c1.2,0,2.1-0.3,3.1-1.2c1.2-1,1.7-2,1.8-3.5c0.1-1.5-0.2-2.6-1.2-3.8c-1-1.2-2-1.7-3.4-1.8l-5.1-0.5l-0.9,10.2L429.6,69.8z"/>
	<path style="fill:#991D1D;" d="M659.8,151.6c-1,0-2,0-3-0.1l-29.6-1.8c-2.1-0.1-3.7-0.8-4.8-2c-1.1-1.2-1.6-2.9-1.4-5l0.9-14.8
		c0.2-4,2.6-6.2,6.4-6.2c0.2,0,0.4,0,0.6,0l29.6,1.8c0.3,0,0.6,0,0.9,0c3.3,0,6.1-1.1,8.6-3.3c2.7-2.4,4.2-5.4,4.4-9
		c0.2-3.6-0.9-6.8-3.3-9.5c-2.4-2.7-5.4-4.2-9-4.4c-11.3-0.7-20.9-5.1-28.4-13.1c-7.6-8-11.1-17.5-10.4-28.1
		c0.6-10.6,5.3-19.6,13.7-26.7c7.7-6.4,16.7-9.7,26.8-9.7c1,0,2,0,3,0.1l29.6,1.8c2.1,0.1,3.7,0.8,4.8,2c1.1,1.2,1.6,2.9,1.4,5
		l-0.9,14.8c-0.2,4-2.6,6.2-6.4,6.2c-0.2,0-0.4,0-0.6,0L663,47.9c-0.3,0-0.6,0-0.9,0c-3.3,0-6.1,1.1-8.6,3.3c-2.7,2.4-4.2,5.4-4.4,9
		c-0.2,3.7,0.9,6.8,3.3,9.5c2.4,2.7,5.4,4.2,9,4.4c11.3,0.7,20.9,5.1,28.4,13.1c7.6,8,11.1,17.5,10.4,28.1
		c-0.6,10.6-5.3,19.6-13.7,26.7C678.9,148.4,669.9,151.6,659.8,151.6z"/>
	<path style="fill:#CC2525;" d="M663.8,78.2c-4.1-0.2-7.5-1.9-10.2-5c-2.7-3.1-4-6.6-3.7-10.7c0.2-4.1,1.9-7.5,5-10.2
		c3.1-2.7,6.6-4,10.7-3.7l29.6,1.8c3.3,0.2,5-1.3,5.2-4.6l0.9-14.8c0.2-3.3-1.3-5-4.6-5.2L667,23.9c-10.4-0.6-19.6,2.1-27.5,8.3
		l0.6,7.9c0.4,5.1-2.5,8.6-7.6,9l-5.6,0.5c-0.9,2.9-1.5,5.9-1.7,9.1c-0.3,5.1,0.4,9.8,2,14.3c3.6,0.6,5.9,3.3,6.2,7.5l0.3,3.5
		c0.5,0.5,0.9,1.1,1.4,1.6c7.3,7.7,16.4,11.9,27.3,12.5c4.1,0.2,7.5,1.9,10.2,5c2.7,3.1,4,6.6,3.7,10.7c-0.2,4.1-1.9,7.5-5,10.2
		c-3.1,2.7-6.6,4-10.7,3.7l-13.7-0.8c0.2,0.6,0.3,1.3,0.4,2l1.2,14.8c0.2,2.6-0.4,4.7-1.7,6.3c-0.5,0.6-1.2,1.1-1.9,1.6l14.3,0.9
		c10.9,0.7,20.5-2.4,28.6-9.2c8.1-6.8,12.5-15.3,13.1-25.5c0.6-10.2-2.7-19.2-10-26.9C683.8,83,674.7,78.8,663.8,78.2z"/>
	<path style="fill:#FAD60B;" d="M661.8,21.4c0.9,0,1.9,0,2.9,0.1l29.6,1.8c3.3,0.2,4.8,1.9,4.6,5.2L698,43.3
		c-0.2,3.1-1.7,4.7-4.7,4.7c-0.2,0-0.4,0-0.5,0l-29.6-1.8c-0.3,0-0.7,0-1,0c-3.7,0-6.9,1.2-9.7,3.7c-3.1,2.7-4.7,6.1-5,10.2
		c-0.2,4.1,1,7.7,3.7,10.7c2.7,3.1,6.1,4.7,10.2,5c10.9,0.7,20,4.8,27.3,12.5c7.3,7.7,10.6,16.7,10,26.9c-0.6,10.2-5,18.7-13.1,25.5
		c-7.4,6.2-16,9.3-25.7,9.3c-0.9,0-1.9,0-2.9-0.1l-29.6-1.8c-3.3-0.2-4.8-1.9-4.6-5.2l0.9-14.8c0.2-3.1,1.7-4.7,4.7-4.7
		c0.2,0,0.4,0,0.5,0l29.6,1.8c0.3,0,0.7,0,1,0c3.7,0,6.9-1.2,9.7-3.7c3.1-2.7,4.7-6.1,5-10.2c0.2-4.1-1-7.7-3.7-10.7
		c-2.7-3.1-6.1-4.7-10.2-5c-10.9-0.7-20-4.8-27.3-12.5c-7.3-7.7-10.6-16.7-10-26.9c0.6-10.2,5-18.7,13.1-25.5
		C643.5,24.5,652,21.4,661.8,21.4 M661.8,18c-10.5,0-19.9,3.4-27.9,10.1c-8.8,7.4-13.7,16.7-14.3,27.9c-0.7,11.1,3,21,10.9,29.4
		c7.8,8.3,17.8,12.9,29.5,13.6c3.2,0.2,5.8,1.4,7.9,3.8c2.1,2.4,3.1,5.1,2.9,8.3c-0.2,3.2-1.4,5.8-3.8,7.9c-2.2,1.9-4.6,2.9-7.5,2.9
		c-0.3,0-0.5,0-0.8,0L629,120c-0.3,0-0.5,0-0.7,0c-4.8,0-7.8,2.9-8.1,7.8l-0.9,14.8c-0.3,5.1,2.7,8.5,7.8,8.8l29.6,1.8
		c1,0.1,2.1,0.1,3.1,0.1c10.5,0,19.9-3.4,27.9-10.1c8.8-7.4,13.7-16.7,14.3-27.9c0.7-11.1-3-21-10.9-29.4
		c-7.8-8.3-17.8-12.9-29.5-13.6c-3.2-0.2-5.8-1.4-7.9-3.8c-2.1-2.4-3.1-5.1-2.9-8.3c0.2-3.2,1.4-5.8,3.8-7.9
		c2.2-1.9,4.6-2.9,7.5-2.9c0.3,0,0.5,0,0.8,0l29.6,1.8c0.3,0,0.5,0,0.7,0c4.8,0,7.8-2.9,8.1-7.8l0.9-14.8c0.2-2.6-0.5-4.7-1.9-6.2
		c-1.4-1.6-3.4-2.4-6-2.6l-29.6-1.8C663.8,18.1,662.8,18,661.8,18L661.8,18z"/>
	<path style="fill:#991D1D;" d="M568.8,154.3c-3.7,0-6-2.2-6.3-6.1l-9.7-118.3c-0.3-4.2,1.9-6.8,6.1-7.2l69-5.6c0.3,0,0.6,0,0.9,0
		c3.7,0,6,2.2,6.3,6.1l1.2,14.8c0.3,4.2-1.9,6.8-6.1,7.2L582.6,49l2.1,26.2l37.7-3.1c0.3,0,0.6,0,0.9,0c3.7,0,6,2.2,6.3,6.1l0.8,9.9
		c0.3,4.2-1.9,6.8-6.1,7.2l-37.7,3.1l2.1,26.2l47.6-3.9c0.3,0,0.6,0,0.9,0c3.7,0,6,2.2,6.3,6.1l1.2,14.8c0.3,4.2-1.9,6.8-6.1,7.2
		l-69,5.6C569.3,154.3,569.1,154.3,568.8,154.3z"/>
	<path style="fill:#CC2525;" d="M645.4,144l-1.2-14.8c-0.3-3.3-2-4.8-5.3-4.5l-49.3,4l-2.4-2.4l2-2.8l-2-24.4l39.4-3.2
		c3.3-0.3,4.8-2,4.5-5.3l-0.8-9.9c-0.3-3.3-2-4.8-5.3-4.5l-39.4,3.2l-2.4-2.4l2-1.9l-2.1-25.3l49.3-4c3.3-0.3,4.8-2,4.5-5.3
		l-1.2-14.8c-0.3-3.3-2-4.8-5.3-4.5l-56,4.6c2,1.6,3,4.1,2.8,7.2l-1.1,14.8c-0.4,4.8-3.4,7.7-8,7.7c-0.3,0-0.6,0-0.9,0l-8.4-0.6
		l7.8,95.7c0.3,3.3,2,4.8,5.3,4.5l69-5.6C644.2,149,645.7,147.3,645.4,144z"/>
	<path style="fill:#FAD60B;" d="M628.7,18.7c2.8,0,4.4,1.5,4.6,4.6l1.2,14.8c0.3,3.3-1.2,5.1-4.5,5.3l-49.3,4l2.4,29.6l39.4-3.2
		c0.2,0,0.5,0,0.7,0c2.8,0,4.4,1.5,4.6,4.6l0.8,9.9c0.3,3.3-1.2,5.1-4.5,5.3l-39.4,3.2l2.4,29.6l49.3-4c0.2,0,0.5,0,0.7,0
		c2.8,0,4.4,1.5,4.6,4.6l1.2,14.8c0.3,3.3-1.2,5.1-4.5,5.3l-69,5.6c-0.2,0-0.5,0-0.7,0c-2.8,0-4.4-1.5-4.6-4.6l-9.7-118.3
		c-0.3-3.3,1.2-5.1,4.5-5.3l69-5.6C628.3,18.7,628.5,18.7,628.7,18.7 M628.7,15.4c-0.3,0-0.7,0-1,0l-69,5.6
		c-2.6,0.2-4.5,1.1-5.9,2.7c-1.4,1.6-1.9,3.7-1.7,6.3l9.7,118.3c0.4,4.8,3.4,7.7,8,7.7c0.3,0,0.7,0,1,0l69-5.6
		c2.6-0.2,4.5-1.1,5.9-2.7c1.4-1.6,1.9-3.7,1.7-6.3l-1.2-14.8c-0.4-4.8-3.4-7.7-8-7.7c-0.3,0-0.7,0-1,0l-45.9,3.8l-1.9-22.8l36.1-3
		c2.6-0.2,4.5-1.1,5.9-2.7c1.4-1.6,1.9-3.7,1.7-6.3l-0.8-9.9c-0.4-4.8-3.4-7.7-8-7.7c-0.3,0-0.7,0-1,0l-36.1,3l-1.9-22.8l45.9-3.8
		c5.1-0.4,8-3.9,7.6-9L636.7,23C636.3,18.2,633.3,15.4,628.7,15.4L628.7,15.4z"/>
	<path style="fill:#991D1D;" d="M530.7,152.9c-0.3,0-0.5,0-0.8,0l-14.8-1.1c-2.1-0.2-3.7-0.9-4.8-2.1c-1.1-1.2-1.5-2.9-1.3-5
		l7.5-96.9L496,46.1c-4.2-0.3-6.4-2.9-6.1-7.1l1.1-14.8c0.3-3.9,2.6-6.1,6.3-6.1c0.3,0,0.5,0,0.8,0l69,5.3c4.2,0.3,6.4,2.9,6.1,7.1
		l-1.1,14.8c-0.3,4-2.5,6.1-6.3,6.1c-0.3,0-0.5,0-0.8,0l-20.5-1.6l-7.5,96.9C536.7,150.8,534.5,152.9,530.7,152.9z"/>
	<path style="fill:#CC2525;" d="M569.4,27.5l-69-5.3c-5-0.5-5.1,1-5.3,4.6l-0.2,2.7l1.4,16.9c0.6,0.3,1.4,0.5,2.2,0.5l16.2,1.2
		l3.6-1.9l2.4,2.4l-7.6,98.6c-0.3,3.3,1.3,5.1,4.6,5.3l14.8,1.1c3.3,0.3,5.1-1.3,5.3-4.6l7.6-98.6l22.2,1.7c3.3,0.3,5.1-1.3,5.3-4.6
		l1.1-14.8C574.2,29.5,572.7,27.8,569.4,27.5z"/>
	<path style="fill:#FAD60B;" d="M497.3,19.8c0.2,0,0.4,0,0.7,0l69,5.3c3.3,0.3,4.8,2,4.6,5.3l-1.1,14.8c-0.2,3.1-1.8,4.6-4.6,4.6
		c-0.2,0-0.4,0-0.7,0L543,48.1l-7.6,98.6c-0.2,3.1-1.8,4.6-4.6,4.6c-0.2,0-0.4,0-0.7,0l-14.8-1.1c-3.3-0.3-4.8-2-4.6-5.3l7.6-98.6
		l-22.2-1.7c-3.3-0.3-4.8-2-4.6-5.3l1.1-14.8C492.9,21.3,494.5,19.8,497.3,19.8 M497.3,16.4c-4.6,0-7.6,2.9-8,7.7l-1.1,14.8
		c-0.2,2.6,0.4,4.7,1.8,6.2s3.3,2.5,5.9,2.7l18.8,1.4l-7.3,95.2c-0.2,2.6,0.4,4.7,1.8,6.2c1.4,1.6,3.3,2.5,5.9,2.7l14.8,1.1
		c0.3,0,0.6,0,0.9,0c4.6,0,7.6-2.9,8-7.7l7.3-95.2l18.8,1.4c0.3,0,0.6,0,0.9,0c4.6,0,7.6-2.9,8-7.7l1.1-14.8
		c0.4-5.1-2.5-8.5-7.7-8.9l-69-5.3C497.9,16.4,497.6,16.4,497.3,16.4L497.3,16.4z"/>
	<path style="fill:#991D1D;" d="M478.9,152.1c-3.7,0-6-2.2-6.3-6.1l-9.8-118.3c-0.3-4.2,1.9-6.8,6.1-7.2l14.8-1.2c0.3,0,0.6,0,0.9,0
		c3.7,0,6,2.2,6.3,6.1l9.8,118.3c0.3,4.2-1.8,6.8-6,7.2l-14.9,1.2C479.5,152.1,479.2,152.1,478.9,152.1z"/>
	<path style="fill:#CC2525;" d="M501.3,146.2l-9.8-118.3c-0.3-3.3-2.1-4.8-5.3-4.5l-14.8,1.2c-4.6,0.4-4.9,0.5-4.5,5.3l0.6,7.8
		c6.1,8,8.7,17,7.8,26.9c-0.5,5.4-1.9,10.3-4.3,14.8l5.7,68.7c0.3,3.3,2.1,4.8,5.3,4.5l14.9-1.2
		C500.1,151.2,501.6,149.5,501.3,146.2z"/>
	<path style="fill:#FAD60B;" d="M484.5,21c2.8,0,4.4,1.5,4.6,4.6l9.8,118.3c0.3,3.3-1.2,5.1-4.4,5.3l-14.9,1.2c-0.3,0-0.5,0-0.7,0
		c-2.8,0-4.4-1.5-4.6-4.6l-9.8-118.3c-0.3-3.3,1.2-5.1,4.5-5.3l14.8-1.2C484,21,484.3,21,484.5,21 M484.5,17.6L484.5,17.6
		c-0.3,0-0.7,0-1,0l-14.8,1.2c-5.1,0.4-8,3.9-7.6,9l9.8,118.3c0.4,4.8,3.4,7.6,8,7.6c0.3,0,0.7,0,1,0l14.9-1.2
		c5.1-0.4,7.9-3.9,7.5-9l-9.8-118.3C492.1,20.4,489.1,17.6,484.5,17.6L484.5,17.6z"/>
	<path style="fill:#991D1D;" d="M457.4,154.5c-0.3,0-0.6,0-0.9,0l-14.8-1.3c-2.1-0.2-3.7-0.9-4.7-2.2c-1-1.2-1.5-2.9-1.3-5l2.7-30.3
		l-0.5,0l0.5-1.9c0.2-0.7,0.3-1.4,0.4-2.2c0.3-3.6-0.7-6.8-3-9.6c-2.4-2.8-5.3-4.3-8.9-4.7l-13.1-1.2l-4.2,47.6
		c-0.3,3.9-2.6,6.1-6.3,6.1c-0.3,0-0.6,0-0.9,0l-14.8-1.3c-4.2-0.4-6.4-3-6-7.2L392,22.9c0.3-3.9,2.6-6.1,6.3-6.1c0.3,0,0.6,0,0.9,0
		l34.5,3.1c11.3,1,20.7,5.7,28,13.9c7.3,8.2,10.6,17.8,9.6,28.4c-0.9,10.5-5.7,19.3-14.2,26c7.2,8.1,10.3,17.6,9.4,28.1l-2.9,32
		C463.3,152.4,461.1,154.5,457.4,154.5z M428.9,74.2c0.4,0,0.9,0.1,1.3,0.1c3.1,0,5.8-1,8.3-3.1c2.8-2.4,4.3-5.3,4.7-8.9
		c0.3-3.6-0.7-6.8-3-9.6c-2.4-2.8-5.3-4.3-8.9-4.7l-13.1-1.2L415.8,73L428.9,74.2z"/>
	<path style="fill:#CC2525;" d="M472.1,64.5c0.9-10.2-2.2-19.2-9.2-27.1c-7-7.9-16-12.3-26.9-13.3L401.5,21c-4.5-0.4-5,0.7-5.4,4.5
		l-2.7,29.9l2.9,28.6c1.8,18.2-0.6,34.4-7.3,48.2c-0.9,1.9-1.9,3.7-2.9,5.3l-0.6,6.2c-0.3,3.3,1.2,5.1,4.5,5.4l14.8,1.3
		c3.3,0.3,5.1-1.2,5.4-4.5l4.4-49.3l14.8,1.3c4.1,0.4,7.4,2.1,10.1,5.3c2.6,3.1,3.8,6.8,3.4,10.8c-0.1,0.9-0.2,1.7-0.4,2.4l0.2,0
		l-2.9,32c-0.3,3.3,1.2,5.1,4.5,5.4l14.8,1.3c3.3,0.3,5.1-1.2,5.4-4.5l2.9-32c0.9-10.2-2.2-19.2-9.2-27.1c-0.3-0.4-0.6-0.7-1-1.1
		c0.4-0.3,0.8-0.6,1.2-0.9C466.6,83.1,471.2,74.7,472.1,64.5z M447.2,64.8c-0.4,4.1-2.1,7.4-5.3,10.1c-3.1,2.6-6.8,3.8-10.8,3.4
		l-14.8-1.3l-2.4-2.4l2.7-1.6l2.3-25.6l14.8,1.3c4.1,0.4,7.4,2.1,10.1,5.3C446.5,57.1,447.6,60.7,447.2,64.8z"/>
	<path style="fill:#FAD60B;" d="M398.3,18.6c0.2,0,0.5,0,0.8,0l34.5,3.1c10.9,1,19.9,5.4,26.9,13.3c7,7.9,10.1,17,9.2,27.1
		c-0.9,10.2-5.5,18.5-13.9,25.1c-0.4,0.3-0.7,0.6-1.2,0.9c0.4,0.4,0.7,0.7,1,1.1c7,7.9,10.1,17,9.2,27.1l-2.9,32
		c-0.3,3-1.8,4.5-4.6,4.5c-0.2,0-0.5,0-0.8,0l-14.8-1.3c-3.3-0.3-4.8-2.1-4.5-5.4l2.9-32c0,0,0.1-1.6,0.2-2.5
		c0.4-4.1-0.8-7.7-3.4-10.8c-2.6-3.1-6-4.9-10.1-5.3l-14.8-1.3l-4.4,49.3c-0.3,3-1.8,4.5-4.6,4.5c-0.2,0-0.5,0-0.8,0l-14.8-1.3
		c-3.3-0.3-4.8-2.1-4.5-5.4l10.5-118.2C394,20.1,395.5,18.6,398.3,18.6 M430.2,75.9c3.5,0,6.6-1.2,9.4-3.5c3.1-2.6,4.9-6,5.3-10.1
		c0.4-4.1-0.8-7.7-3.4-10.8c-2.6-3.1-6-4.9-10.1-5.3L416.6,45L414,74.5l14.8,1.3C429.2,75.9,429.7,75.9,430.2,75.9 M398.3,15.2
		c-4.6,0-7.5,2.8-8,7.6L379.8,141c-0.5,5.1,2.4,8.6,7.6,9l14.8,1.3c0.4,0,0.7,0,1.1,0c4.6,0,7.5-2.8,8-7.6l4.1-45.9l11.4,1
		c3.2,0.3,5.7,1.6,7.8,4.1c2.1,2.5,2.9,5.2,2.6,8.4c-0.1,0.7-0.5,5.8-0.5,5.8l-2.6,28.7c-0.5,5.1,2.4,8.6,7.6,9l14.8,1.3
		c0.4,0,0.7,0,1.1,0c4.6,0,7.5-2.8,8-7.6l2.9-32c0.9-10.4-2-19.9-8.7-28.1c8-6.9,12.6-15.7,13.5-26.1c1-11.1-2.4-21.1-10-29.7
		c-7.6-8.5-17.4-13.4-29.1-14.4l-34.5-3.1C399,15.2,398.7,15.2,398.3,15.2L398.3,15.2z M417.6,71.5l2-22.8l11.4,1
		c3.2,0.3,5.7,1.6,7.8,4.1c2.1,2.5,2.9,5.2,2.6,8.4c-0.3,3.2-1.6,5.7-4.1,7.8c-2.2,1.8-4.5,2.7-7.2,2.7c-0.4,0-0.8,0-1.2-0.1
		L417.6,71.5L417.6,71.5z"/>
	<path style="fill:#991D1D;" d="M355,151.8c-10.3,0-19.8-5.6-28.3-16.8c-9.1-11.9-14.6-27-16.4-44.9l-5.9-59
		c-0.2-2.1,0.2-3.8,1.2-5.1c1-1.3,2.6-2,4.7-2.2l14.8-1.5c0.4,0,0.7-0.1,1-0.1c3.6,0,5.8,2.1,6.2,6l5.9,59c1.1,10.6,3.4,19.7,7,26.8
		c3.1,6.3,6.3,9.6,9.4,9.6c0.2,0,0.3,0,0.5,0c3.3-0.3,5.9-4.1,7.8-11.3c2.1-7.7,2.6-17,1.5-27.7l-5.9-59c-0.2-2.1,0.2-3.8,1.2-5.1
		c1-1.3,2.6-2,4.7-2.2l14.8-1.5c0.4,0,0.7-0.1,1-0.1c3.6,0,5.8,2.1,6.2,6l5.9,59c1.8,17.9-0.6,33.8-7.1,47.3
		c-6.7,13.8-15.9,21.3-27.3,22.5C357,151.7,356,151.8,355,151.8z"/>
	<path style="fill:#CC2525;" d="M393.1,84.4l-5.9-59c-0.3-3.3-2.1-4.8-5.4-4.4L367,22.4c-4.2,0.5-4.9,1.3-4.4,5.4l5.9,59
		c1.1,10.9,0.6,20.3-1.5,28.3c-2.1,8-5.2,12.2-9.3,12.6c-4.1,0.4-7.9-3.1-11.6-10.5c-3.7-7.4-6-16.5-7.1-27.4l-5.9-59
		c-0.3-3.3-2.1-4.8-5.4-4.4l-14.8,1.5c-2.6,0.3-4.1,1.5-4.4,3.7c0.4,0.6,0.8,1.1,1.2,1.7c11.9,16.9,17.1,36.9,15.5,59.5
		c-0.6,9-2.3,17.4-5,25.3c2.6,6.8,6,12.9,10.2,18.4c8.9,11.7,18.8,17,29.7,15.9c10.9-1.1,19.5-8.3,26-21.5
		C392.6,117.5,394.9,102.1,393.1,84.4z"/>
	<path style="fill:#FAD60B;" d="M380.2,18.5c2.7,0,4.3,1.5,4.6,4.5l5.9,59c1.8,17.6-0.6,33.1-7,46.4c-6.4,13.3-15.1,20.5-26,21.5
		c-0.9,0.1-1.9,0.1-2.8,0.1c-9.8,0-18.8-5.4-27-16.1c-8.9-11.7-14.3-26.4-16.1-44.1l-5.9-59c-0.3-3.3,1.1-5.1,4.4-5.4l14.8-1.5
		c0.3,0,0.6,0,0.9,0c2.7,0,4.3,1.5,4.6,4.5l5.9,59c1.1,10.9,3.5,20,7.1,27.4c3.5,7,7.1,10.5,11,10.5c0.2,0,0.4,0,0.6,0
		c4.1-0.4,7.2-4.6,9.3-12.6c2.1-8,2.6-17.4,1.5-28.3l-5.9-59c-0.3-3.3,1.1-5.1,4.4-5.4l14.8-1.5C379.7,18.5,380,18.5,380.2,18.5
		 M380.2,15.1c-0.4,0-0.8,0-1.2,0.1l-14.8,1.5c-5.1,0.5-8,4-7.4,9.1l5.9,59c1,10.4,0.6,19.5-1.4,27.1c-1.7,6.2-3.9,9.8-6.3,10.1
		c-0.1,0-0.2,0-0.3,0c-2.4,0-5.2-3.1-7.9-8.6c-3.5-7-5.7-15.8-6.8-26.3l-5.9-59c-0.5-4.7-3.4-7.5-7.9-7.5c-0.4,0-0.8,0-1.2,0.1
		l-14.8,1.5c-5.1,0.5-8,4-7.4,9.1l5.9,59c1.8,18.2,7.5,33.6,16.7,45.8c8.8,11.6,18.8,17.4,29.7,17.4c1,0,2.1-0.1,3.1-0.2
		c12.1-1.2,21.7-9.1,28.7-23.4c6.7-13.8,9.1-30,7.3-48.2l-5.9-59C387.7,17.9,384.7,15.1,380.2,15.1L380.2,15.1z"/>
	<path style="fill:#991D1D;" d="M253.8,166.6c-1.4,0-2.9-0.1-4.4-0.2c-18.3-1.3-33.5-10.4-45.2-27.1c-11.7-16.6-16.8-36.2-15.2-58.4
		c1.6-22.2,9.4-40.9,23.3-55.7C225.1,11.6,240,4.7,256.5,4.7c1.4,0,2.9,0.1,4.4,0.2c18.3,1.3,33.5,10.4,45.2,27.1
		c11.7,16.6,16.8,36.2,15.2,58.4c-1.6,22.2-9.4,40.9-23.3,55.7C285.1,159.7,270.3,166.6,253.8,166.6
		C253.8,166.6,253.8,166.6,253.8,166.6z M238.5,56.8c-10.5,0-19.3,8.2-20.1,18.7c-0.8,11.5,10.5,21.4,20.4,30.1
		c6.2,5.4,11.7,10.2,14,15c2.8-3.5,7.9-6.6,13.9-10.3C278,103.4,292,94.8,293,80.8c0.8-11.1-7.6-20.7-18.7-21.5
		c-0.5,0-1-0.1-1.4-0.1c-5.6,0-11,2.4-14.8,6.5l-1.5,2l-1.3-2c-3.5-5.2-9.1-8.5-15.3-8.9C239.4,56.8,238.9,56.8,238.5,56.8z"/>
	<path style="fill:#CC2525;" d="M307.1,35.3C295.6,19,281,10.2,263.1,8.9c-17.8-1.3-33.6,5.4-47.2,19.9c-3.3,3.5-6.2,7.2-8.8,11.1
		l-8.3,84c2.4,5.9,5.4,11.5,9.1,16.8c11.5,16.3,26.1,25.1,44,26.4c17.8,1.3,33.6-5.4,47.2-19.9c13.7-14.5,21.3-32.8,22.8-54.6
		C323.6,70.7,318.6,51.6,307.1,35.3z M297,83.3c-1.8,25.1-41.4,32.9-42.3,44.9l0,0c0,0-2.4-2.4-2.4-2.4s0.6-3.6-0.3-4.8
		c-8.5-11.6-34.2-25-32.9-43.2c0.9-12,11.3-21.1,23.3-20.2c7,0.5,13,4.2,16.6,9.6l0.1-0.2c4.3-4.7,10.7-7.5,17.6-7
		C288.8,60.8,297.9,71.3,297,83.3z"/>
	<path style="fill:#FAD60B;" d="M256.5,6.4c1.4,0,2.8,0.1,4.2,0.2c17.8,1.3,32.5,10.1,44,26.4c11.5,16.3,16.5,35.4,14.9,57.3
		c-1.6,21.9-9.2,40.1-22.8,54.6c-12.6,13.4-26.9,20.1-43,20.1c-1.4,0-2.8-0.1-4.2-0.2c-17.8-1.3-32.5-10.1-44-26.4
		c-11.5-16.3-16.5-35.4-14.9-57.3c1.6-21.9,9.2-40.1,22.8-54.6C226.1,13.1,240.4,6.4,256.5,6.4 M252.3,125.8L252.3,125.8
		c0.9-12.1,40.5-19.8,42.3-44.9c0.9-12-8.2-22.5-20.2-23.3c-0.5,0-1-0.1-1.6-0.1c-6.3,0-12.1,2.7-16.1,7.1l-0.1,0.2
		c-3.6-5.4-9.6-9.2-16.6-9.6c-0.5,0-1-0.1-1.6-0.1c-11.4,0-20.9,8.8-21.8,20.3C215.1,97.4,253.3,112.4,252.3,125.8 M256.5,3
		c-17,0-32.3,7.1-45.5,21.1c-14.2,15.1-22.2,34.1-23.8,56.7c-1.6,22.6,3.6,42.6,15.5,59.5c12,17.1,27.7,26.5,46.5,27.8
		c1.5,0.1,3,0.2,4.5,0.2c17,0,32.3-7.1,45.5-21.1c14.2-15.1,22.2-34.1,23.8-56.7c1.6-22.6-3.6-42.6-15.5-59.5
		c-12-17.1-27.7-26.5-46.5-27.8C259.5,3.1,258,3,256.5,3L256.5,3z M253.2,117.8c-2.9-4.4-7.8-8.7-13.3-13.5
		c-9.7-8.4-20.6-18-19.9-28.7c0.7-9.6,8.8-17.2,18.4-17.2c0.4,0,0.9,0,1.3,0c5.7,0.4,10.8,3.4,14,8.2l2.7,4l2.9-3.9l0,0
		c3.5-3.7,8.4-5.9,13.5-5.9c0.4,0,0.9,0,1.3,0c10.2,0.7,17.8,9.6,17.1,19.7c-0.9,13.1-13.9,21.1-25.4,28.2
		C260.9,111.9,256.3,114.7,253.2,117.8L253.2,117.8z"/>
	<path style="fill:#991D1D;" d="M166.4,152c-3.6,0-6.4-1.8-8.6-5.2l-0.1-0.2L125.1,29.9l0-0.2c-0.5-5.3,1.6-6.7,3.5-7l19.8-1.7
		c0.1,0,0.2,0,0.3,0c2.2,0,4.3,1.7,6.6,5.3l0.1,0.2l13.9,48l5.1-49.7l0.1-0.2c1.6-4.1,3.6-6.2,5.9-6.4l18.9-1.7c0.2,0,0.3,0,0.4,0
		c1.7,0,4.7,0.8,5.1,6.2l0,0.2l-11.9,120.6l-0.1,0.2c-1.6,4-4.5,6.3-8.5,6.7l-17.2,1.5C166.9,152,166.6,152,166.4,152z"/>
	<path style="fill:#CC2525;" d="M201.8,20.7l-18.9,1.7c-1.6,0.1-3.1,1.9-4.5,5.4l-5.9,58.1l-2.4-2.4l-0.3-6.9l-13.5-46.8
		c-2-3.1-3.8-4.6-5.4-4.5l-19.7,1.7c0,0-0.1,0-0.1,0l3.5,24.7l27,96.8c1.9,3.1,4.5,4.6,7.7,4.4l17.1-1.5c3.4-0.4,5.8-2.3,7.1-5.7
		l11.8-120.2C205.2,22.1,204,20.6,201.8,20.7z"/>
	<path style="fill:#FAD60B;" d="M199.7,18.3c2,0,3.2,1.6,3.4,4.6l-11.8,120.2c-1.4,3.4-3.7,5.3-7.1,5.7l-17.1,1.5
		c-0.2,0-0.4,0-0.6,0c-2.9,0-5.3-1.5-7.1-4.4L126.8,29.6c-0.3-3.2,0.4-4.9,2-5.1l19.7-1.7c0.1,0,0.1,0,0.2,0c1.5,0,3.2,1.5,5.2,4.5
		l16.2,56.2l5.9-58.1c1.4-3.4,2.9-5.2,4.5-5.4l18.9-1.7C199.5,18.3,199.6,18.3,199.7,18.3 M199.7,14.9L199.7,14.9
		c-0.1,0-0.3,0-0.4,0l-0.1,0l-0.1,0l-18.9,1.7c-4.5,0.4-6.6,5.7-7.3,7.5l-0.2,0.4l0,0.5l-4.2,40.8l-11.4-39.4l-0.1-0.5l-0.3-0.4
		c-1.7-2.6-4.3-6.1-8-6.1c-0.2,0-0.3,0-0.5,0l-19.7,1.7l-0.1,0l-0.1,0c-1.7,0.2-5.6,1.5-5,8.8l0,0.3l0.1,0.3L156,146.8l0.1,0.5
		l0.2,0.4c3.1,5,7.1,6,10,6c0.3,0,0.6,0,0.8,0l0,0l0,0l17.1-1.5l0,0l0,0c4.7-0.5,8.1-3.2,9.9-7.8l0.2-0.4l0-0.5l11.8-120.2l0-0.3
		l0-0.3C206.3,20.9,205.4,14.9,199.7,14.9L199.7,14.9z"/>
	<path style="fill:#991D1D;" d="M138.9,153.1l-19-0.8c-2.4-0.1-4.4-2.1-6.2-6.2l-0.1-0.2l-0.6-3.8l-17.5-0.8l-0.9,3.8l-0.1,0.2
		c-2.2,3.8-4.3,5.6-6.5,5.6l-0.2,0L68.1,150c-1.9-0.1-4.1-1.3-3.9-6.8l0-0.2l27.5-118l0.1-0.2c2.1-3.7,5-5.6,8.8-5.6l0.3,0l17.2,0.8
		c4.1,0.3,7.1,2.5,8.9,6.4l0.1,0.2l17.1,119.9l0,0.2c-0.2,5.6-3.2,6.4-5,6.4L138.9,153.1z M109,113.8l-2.6-17.3l-4.1,17L109,113.8z"
		/>
	<path style="fill:#CC2525;" d="M127.9,29.5c-1.5-3.4-4-5.2-7.4-5.4l-17.2-0.8c-3.2-0.1-5.7,1.5-7.5,4.7l-0.9,3.7l0.6,7.2
		c0.3,3.8-1.2,6.7-4.1,8.1l-6,25.7c2,1.3,3.2,3.5,3.4,6.4l0.8,9.9c0.4,5.1-2.5,8.6-7.6,9l-2.6,0.2l-11.1,47.5c-0.1,3.3,0.6,5,2.3,5
		l19.8,0.9c1.6,0.1,3.3-1.5,5.2-4.7l1.2-4.9l20.3,0.9l0.8,5c1.5,3.4,3.1,5.1,4.7,5.2l19,0.8c2.2,0.1,3.3-1.5,3.5-4.8L127.9,29.5z
		 M102.6,117.5l-2.4-2.4l5.4-11.4l1.3-16.1l2.4,2.4l4.1,27.9L102.6,117.5z"/>
	<path style="fill:#FAD60B;" d="M100.7,21c0.1,0,0.1,0,0.2,0l17.2,0.8c3.4,0.2,5.9,2,7.4,5.4l17,119.5c-0.1,3.2-1.2,4.8-3.3,4.8
		c-0.1,0-0.1,0-0.2,0l-19-0.8c-1.6-0.1-3.2-1.8-4.7-5.2l-0.8-5l-20.3-0.9l-1.2,4.9c-1.8,3.2-3.5,4.7-5.1,4.7c0,0-0.1,0-0.1,0
		l-19.8-0.9c-1.6-0.1-2.4-1.8-2.3-5L93.3,25.7C95.1,22.5,97.5,21,100.7,21 M111,115.6l-4.1-27.9l-6.6,27.4L111,115.6 M100.7,17.6
		c-3,0-7.3,1.1-10.3,6.5l-0.2,0.4l-0.1,0.5L62.6,142.5l-0.1,0.3l0,0.3c-0.3,7.5,3.7,8.5,5.5,8.6l19.8,0.9c0.1,0,0.2,0,0.2,0
		c3.8,0,6.4-3.7,8-6.4l0.2-0.4l0.1-0.5l0.5-2.2l14.7,0.6l0.3,2.2l0.1,0.4l0.2,0.4c0.8,1.7,3.1,7,7.7,7.2l19,0.8c0.1,0,0.2,0,0.3,0
		c1.5,0,6.3-0.6,6.7-8l0-0.3l0-0.3l-17-119.5l-0.1-0.5l-0.2-0.4c-2-4.5-5.6-7.1-10.3-7.4l0,0l0,0L101,17.6l0,0l0,0
		C100.9,17.6,100.8,17.6,100.7,17.6L100.7,17.6z M104.5,111.9l1.6-6.6l1,6.7L104.5,111.9L104.5,111.9z"/>
	<path style="fill:#991D1D;" d="M23.9,154.2c-3.7,0-6-2.2-6.3-6.1L8.1,29.8c-0.2-2.1,0.3-3.8,1.3-5c1.1-1.2,2.7-1.9,4.7-2.1l69-5.6
		c0.3,0,0.6,0,0.8,0c3.7,0,6,2.2,6.3,6.1l1.2,14.8c0.2,2.1-0.3,3.8-1.3,5c-1.1,1.2-2.6,1.9-4.7,2.1l-47.6,3.8l2.1,26.2l37.8-3
		c0.3,0,0.6,0,0.8,0c3.7,0,6,2.2,6.3,6.1l0.8,9.9c0.3,4.2-1.9,6.8-6.1,7.1l-37.8,3l3.8,47.6c0.2,2.1-0.3,3.8-1.3,5
		c-1.1,1.2-2.7,1.9-4.7,2.1l-14.8,1.2C24.5,154.2,24.2,154.2,23.9,154.2z"/>
	<path style="fill:#CC2525;" d="M42.4,99.1l4,49.3c0.3,3.3-1.2,5.1-4.5,5.3L27,154.9c-3.3,0.3-5.1-1.2-5.3-4.5L12.2,32
		c-0.3-4,0-4.9,4.5-5.3l69-5.6c3.3-0.3,5.1,1.2,5.3,4.5l1.2,14.8c0.3,3.3-1.2,5.1-4.5,5.3l-49.3,4l0,27.2l2.4,2.4l39.4-3.2
		c3.3-0.3,5.1,1.2,5.3,4.5l0.8,9.9c0.3,3.3-1.2,5.1-4.5,5.3L42.4,99.1z"/>
	<path style="fill:#FAD60B;" d="M84,18.7c2.8,0,4.4,1.5,4.6,4.6l1.2,14.8c0.3,3.3-1.2,5.1-4.5,5.3l-49.3,4l2.4,29.6l39.4-3.2
		c0.2,0,0.5,0,0.7,0c2.8,0,4.4,1.5,4.6,4.6l0.8,9.9c0.3,3.3-1.2,5.1-4.5,5.3L40,96.7l4,49.3c0.3,3.3-1.2,5.1-4.5,5.3l-14.8,1.2
		c-0.2,0-0.5,0-0.7,0c-2.8,0-4.4-1.5-4.6-4.6L9.8,29.6c-0.3-3.3,1.2-5.1,4.5-5.3l69-5.6C83.6,18.7,83.8,18.7,84,18.7 M84,15.3
		c-0.3,0-0.6,0-1,0l-69,5.6c-2.6,0.2-4.5,1.1-5.9,2.7c-1.4,1.6-1.9,3.7-1.7,6.3l9.5,118.3c0.4,4.8,3.4,7.7,8,7.7c0.3,0,0.6,0,1,0
		l14.8-1.2c5.1-0.4,8-3.8,7.6-9l-3.7-45.9l36.1-2.9c5.1-0.4,8-3.8,7.6-9L86.5,78c-0.4-4.8-3.4-7.7-8-7.7c-0.3,0-0.6,0-1,0l-36.1,2.9
		l-1.8-22.8l45.9-3.7c5.1-0.4,8-3.8,7.6-9L92,23C91.6,18.2,88.7,15.3,84,15.3L84,15.3z"/>
</g>
</svg>
