<?xml version="1.0" encoding="utf-8"?>
<!-- Generator: Adobe Illustrator 21.0.2, SVG Export Plug-In . SVG Version: 6.00 Build 0)  -->
<!DOCTYPE svg PUBLIC "-//W3C//DTD SVG 1.0//EN" "http://www.w3.org/TR/2001/REC-SVG-20010904/DTD/svg10.dtd">
<svg version="1.0" id="Layer_1" xmlns="http://www.w3.org/2000/svg" xmlns:xlink="http://www.w3.org/1999/xlink" x="0px" y="0px"
	 width="40px" height="38px" viewBox="0 0 40 38" enable-background="new 0 0 40 38" xml:space="preserve">
<circle fill="#3E91B3" cx="27" cy="30" r="2"/>
<circle fill="#3E91B3" cx="32" cy="26" r="2"/>
<path fill="#3E91B3" d="M38,38H2c-1.1,0-2-0.9-2-2V20c0-1.1,0.9-2,2-2h36c1.1,0,2,0.9,2,2v16C40,37.1,39.1,38,38,38z M38.5,36.5v-17
	h-37v17H38.5z"/>
<path fill="#3E91B3" d="M11,33c-0.6,0-1-0.4-1-1v-8c0-0.6,0.4-1,1-1s1,0.4,1,1v8C12,32.6,11.6,33,11,33z"/>
<path fill="#3E91B3" d="M15,29H7c-0.6,0-1-0.4-1-1s0.4-1,1-1h8c0.6,0,1,0.4,1,1S15.6,29,15,29z"/>
<path fill="#3E91B3" d="M18.5,19c-0.3,0-0.6-0.2-0.7-0.5c-2.1-5.3-0.9-7.3,2.8-9.9c4-2.8,4.8-4.8,3.3-7.5c-0.2-0.4-0.1-0.8,0.3-1
	c0.4-0.2,0.8-0.1,1,0.3c2.4,4.3-0.3,7.1-3.7,9.5c-3.1,2.2-4.1,3.5-2.2,8.1c0.2,0.4,0,0.8-0.4,1C18.7,19,18.6,19,18.5,19z"/>
</svg>
